<svg width="64" height="64" viewBox="0 0 64 64" fill="none" xmlns="http://www.w3.org/2000/svg">
  <!-- Simplified VoidSynth Logo for favicon -->
  <defs>
    <linearGradient id="faviconGradient" x1="0%" y1="0%" x2="100%" y2="100%">
      <stop offset="0%" style="stop-color:#2DD4BF;stop-opacity:1" />
      <stop offset="100%" style="stop-color:#14B8A6;stop-opacity:1" />
    </linearGradient>
  </defs>
  
  <!-- V Shape - simplified -->
  <path d="M10 10 L10 32 L22 42 L22 54 L32 54 L32 42 L22 32 L22 10 Z" fill="url(#faviconGradient)"/>
  
  <!-- S Shape - simplified -->
  <path d="M38 16 Q38 12 42 12 L46 12 Q50 12 50 16 L50 24 Q50 28 46 28 L42 28 Q38 28 38 32 L38 40 Q38 44 42 44 L46 44 Q50 44 50 48 L50 52 Q50 52 46 52 L42 52 Q38 52 38 48 Z" fill="url(#faviconGradient)"/>
</svg>
